<?xml version="1.0" standalone="no"?>
<!DOCTYPE svg PUBLIC "-//W3C//DTD SVG 20010904//EN"
 "http://www.w3.org/TR/2001/REC-SVG-20010904/DTD/svg10.dtd">
<svg version="1.0" xmlns="http://www.w3.org/2000/svg"
 width="720.000000pt" height="720.000000pt" viewBox="0 0 720.000000 720.000000"
 preserveAspectRatio="xMidYMid meet">
<metadata>
Created by potrace 1.11, written by Peter Selinger 2001-2013
</metadata>
<g transform="translate(0.000000,720.000000) scale(0.100000,-0.100000)"
fill="#000000" stroke="none">
<path d="M4136 6489 c2 -4 -3 -12 -11 -19 -13 -11 -14 -10 -9 6 7 18 7 18 -15
0 -22 -20 -22 -20 -15 0 5 15 2 14 -16 -6 -12 -14 -19 -20 -16 -13 4 7 -1 11
-14 10 -11 -1 -20 -5 -20 -10 0 -4 -4 -6 -9 -2 -5 3 -13 0 -17 -6 -4 -7 -3 -9
3 -6 7 4 10 -5 9 -22 0 -16 -4 -27 -9 -24 -4 2 -5 8 -2 13 3 5 0 12 -7 16 -7
4 -10 4 -6 -1 4 -4 -3 -16 -15 -27 -12 -11 -17 -17 -11 -14 7 3 14 -1 17 -9 4
-10 1 -12 -10 -8 -12 5 -15 2 -10 -9 4 -11 1 -14 -12 -11 -10 2 -24 -2 -32
-10 -8 -7 -20 -12 -27 -9 -7 2 -16 -5 -19 -17 -3 -11 -8 -19 -12 -16 -4 2 -7
-12 -7 -30 1 -19 4 -35 9 -35 4 0 7 -5 7 -11 0 -5 -6 -7 -12 -3 -9 6 -9 3 0
-9 8 -9 11 -21 7 -26 -4 -7 5 -9 24 -7 21 2 31 -1 31 -10 0 -8 7 -14 15 -14
26 0 53 -16 53 -30 -1 -19 3 -30 12 -30 5 0 7 8 5 18 -3 9 2 2 10 -15 14 -32
33 -47 22 -20 -3 8 1 14 8 14 8 0 12 -8 10 -20 -4 -15 -2 -17 10 -7 12 10 15
10 15 0 0 -9 4 -9 17 1 14 12 16 12 11 -1 -4 -12 1 -15 21 -14 14 1 27 3 29 4
1 2 10 3 20 4 11 0 26 7 36 15 14 12 16 12 11 0 -4 -10 2 -15 15 -16 11 -1 20
3 20 8 0 6 -4 8 -8 5 -5 -3 -9 1 -9 9 0 11 4 12 13 4 7 -6 18 -8 24 -4 5 3 13
-1 16 -9 3 -9 10 -16 16 -16 5 0 6 5 2 12 -4 7 -3 8 5 4 6 -4 18 -2 26 4 12
10 13 8 10 -12 -4 -22 -4 -22 10 -4 8 11 15 15 15 9 0 -6 9 -13 21 -16 15 -4
19 -2 15 9 -4 12 -2 12 14 4 11 -6 20 -16 20 -23 0 -7 3 -8 8 -2 9 12 48 13
59 1 4 -5 2 -6 -4 -2 -19 10 -16 1 4 -15 11 -10 14 -10 9 -1 -5 8 0 12 13 12
12 0 21 -4 21 -8 0 -10 30 -9 48 2 7 4 12 2 12 -5 0 -10 3 -10 12 -1 7 7 17
12 23 12 5 0 3 -5 -5 -10 -12 -8 -10 -10 11 -10 14 0 30 -5 37 -12 7 -7 12 -9
12 -5 0 4 10 3 21 -4 13 -7 19 -7 15 -1 -3 6 -2 13 4 17 5 3 10 2 10 -3 0 -14
48 -21 54 -8 2 6 5 4 5 -5 1 -13 9 -16 35 -13 29 2 34 0 30 -14 -5 -15 -4 -15
8 -2 15 18 58 22 52 5 -3 -6 2 -12 10 -12 8 0 13 3 11 7 -2 3 5 7 16 7 10 1
19 -3 19 -8 0 -6 -4 -7 -10 -4 -5 3 -10 1 -10 -5 0 -7 6 -10 14 -7 7 3 23 -1
35 -9 17 -12 20 -12 15 -1 -3 8 1 14 10 14 8 0 13 -4 10 -9 -3 -4 0 -8 6 -8 6
0 8 -5 4 -12 -5 -8 0 -7 11 2 11 9 16 10 11 3 -5 -9 0 -13 18 -13 15 0 26 -6
28 -17 2 -9 13 -17 25 -18 19 -1 21 1 10 14 -11 14 -10 14 6 2 9 -7 17 -20 17
-28 0 -12 3 -13 14 -4 11 9 19 5 41 -21 15 -18 24 -27 20 -20 -6 11 -3 11 14
0 12 -7 21 -17 21 -22 0 -4 9 -6 21 -3 14 4 23 -1 29 -16 5 -12 9 -16 9 -9 1
10 4 10 15 0 8 -7 12 -16 9 -20 -2 -5 3 -8 11 -8 8 0 22 -7 31 -16 8 -9 22
-13 30 -10 9 3 12 0 8 -10 -3 -9 1 -14 12 -14 10 0 13 -4 9 -12 -5 -8 -2 -8
10 1 9 8 16 10 15 5 -1 -5 -1 -16 0 -24 1 -13 2 -13 11 0 7 11 10 11 10 2 0
-7 5 -10 10 -7 6 3 10 -4 11 -17 0 -13 3 -18 5 -11 6 13 34 6 34 -9 0 -14 27
-38 34 -31 3 4 6 -2 6 -12 0 -14 3 -15 14 -6 11 9 16 9 22 0 4 -8 3 -9 -4 -5
-7 4 -12 4 -12 1 0 -10 27 -34 33 -29 2 3 7 -7 11 -21 4 -14 11 -25 17 -25 6
0 7 -5 3 -11 -3 -6 -1 -15 5 -19 7 -4 13 -17 14 -28 1 -12 5 -22 9 -22 4 0 8
-7 8 -15 0 -8 9 -30 20 -50 11 -20 20 -42 20 -50 0 -8 5 -15 10 -15 6 0 10 -7
10 -15 0 -8 5 -15 11 -15 6 0 9 -6 6 -14 -3 -7 -1 -18 4 -23 18 -18 22 -126 5
-157 -8 -16 -12 -34 -9 -39 3 -6 1 -7 -5 -3 -7 4 -12 1 -12 -7 0 -8 -11 -22
-24 -33 -14 -10 -23 -21 -20 -26 3 -4 0 -8 -5 -8 -6 0 -11 -7 -11 -16 0 -8 -4
-12 -10 -9 -5 3 -10 -1 -10 -10 0 -12 -5 -15 -17 -11 -10 4 -14 4 -10 0 4 -4
2 -13 -4 -20 -6 -8 -8 -21 -5 -30 5 -14 4 -15 -9 -4 -12 10 -15 10 -15 -2 0
-8 -13 -24 -30 -36 -16 -13 -29 -26 -27 -30 1 -4 -1 -7 -5 -7 -4 0 -19 -15
-33 -34 -14 -19 -25 -31 -25 -26 0 5 -7 -1 -16 -13 -8 -12 -19 -20 -24 -17 -4
3 -13 -2 -20 -10 -7 -8 -16 -12 -21 -9 -5 3 -6 -3 -2 -13 6 -15 4 -16 -9 -5
-13 10 -17 10 -22 -3 -3 -9 -2 -13 4 -10 6 3 10 4 10 1 0 -3 -9 -10 -20 -16
-16 -9 -19 -8 -14 7 2 10 -1 8 -7 -5 -7 -13 -18 -21 -26 -18 -7 3 -12 0 -10
-6 1 -7 -5 -12 -13 -13 -8 0 -20 -11 -27 -25 -7 -14 -13 -19 -13 -10 -1 12 -3
11 -11 -3 -6 -9 -15 -14 -21 -11 -7 5 -8 2 -3 -6 6 -10 4 -12 -8 -7 -8 3 -21
-1 -27 -8 -7 -8 -15 -14 -18 -13 -19 2 -23 -3 -13 -16 9 -11 9 -16 0 -22 -8
-4 -9 -3 -5 4 4 7 3 12 -3 12 -5 0 -12 -6 -14 -12 -4 -10 -6 -10 -6 0 -1 6 -6
12 -12 12 -5 0 -8 -4 -4 -9 3 -5 0 -13 -5 -16 -7 -5 -5 -12 7 -21 16 -13 15
-13 -8 -3 -20 8 -32 8 -45 0 -17 -11 -16 -11 6 -5 28 7 27 5 -12 -19 -19 -12
-29 -14 -34 -5 -4 7 -3 8 4 4 7 -4 12 -2 12 3 0 6 -5 11 -10 11 -6 0 -8 11 -6
25 3 13 0 27 -5 30 -5 4 -5 14 1 26 6 10 7 19 3 19 -5 0 -9 21 -10 48 -1 26
-4 99 -7 162 -4 63 -8 152 -9 197 -1 46 -4 83 -7 83 -3 0 -5 28 -5 63 1 81
-19 130 -40 97 -4 -7 -12 -7 -25 0 -13 7 -20 6 -23 -3 -4 -9 -6 -9 -6 1 -1 8
-6 10 -13 5 -7 -4 -33 -9 -58 -10 -25 0 -45 -2 -45 -3 0 -2 -25 -4 -55 -6
-178 -12 -198 -17 -180 -39 9 -11 9 -15 1 -15 -7 0 -9 -5 -4 -12 7 -12 11 -48
14 -145 1 -24 6 -43 10 -43 5 0 4 -11 -1 -25 -6 -15 -6 -26 0 -30 6 -4 10 -11
10 -16 0 -6 -5 -7 -12 -3 -7 4 -8 3 -4 -4 11 -18 15 -50 18 -124 2 -38 7 -68
12 -68 5 0 3 -6 -3 -13 -6 -8 -8 -17 -4 -20 3 -4 8 -26 9 -50 11 -185 22 -298
29 -305 3 -3 0 -11 -6 -19 -6 -7 -8 -13 -3 -13 5 0 9 -11 9 -24 0 -13 -3 -22
-7 -19 -5 2 -8 -1 -8 -6 0 -6 -5 -11 -11 -11 -5 0 -7 5 -4 11 4 6 -2 5 -13 -2
-17 -11 -19 -16 -9 -28 10 -12 9 -13 -12 -1 -21 11 -23 10 -18 -4 4 -10 3 -15
-2 -11 -5 3 -12 -1 -14 -7 -4 -10 -6 -10 -6 -1 -1 14 -31 6 -31 -9 0 -5 5 -6
12 -2 7 4 8 3 4 -5 -6 -9 -11 -9 -24 1 -12 10 -14 10 -8 1 6 -12 -10 -18 -36
-14 -4 0 -5 -9 -3 -20 4 -21 4 -21 -17 -3 -21 19 -21 19 -8 -6 l13 -25 -22 19
c-17 15 -20 16 -16 4 4 -9 1 -19 -6 -24 -8 -4 -10 -3 -5 4 4 7 3 12 -3 12 -5
0 -13 -5 -16 -10 -4 -6 -11 -7 -17 -4 -7 4 -8 2 -4 -5 4 -6 11 -9 16 -6 5 3
11 1 15 -4 6 -10 -15 -8 -50 4 -19 8 -20 7 -1 -7 18 -14 17 -15 -14 -10 -18 3
-31 1 -28 -4 3 -5 -4 -17 -14 -27 -17 -17 -19 -17 -16 -1 2 9 -3 19 -10 21 -7
3 -10 -1 -6 -10 4 -11 -2 -14 -25 -12 -17 1 -29 -1 -26 -5 6 -10 -24 -22 -35
-15 -4 3 -18 -6 -31 -19 -13 -13 -29 -21 -38 -18 -10 4 -12 1 -6 -8 6 -10 4
-12 -8 -7 -10 3 -17 2 -17 -4 0 -14 -22 10 -45 49 -11 17 -23 32 -28 32 -4 0
-6 4 -3 8 3 5 -4 18 -14 30 -11 12 -20 25 -20 29 0 8 -69 116 -90 141 -6 6 -9
12 -6 12 5 0 -55 96 -74 118 -6 6 -8 12 -5 12 3 0 -3 10 -15 22 -11 12 -20 25
-20 30 0 10 -71 120 -83 129 -5 3 -8 9 -8 13 2 8 -31 59 -44 68 -5 4 -6 8 -2
8 4 0 3 6 -3 13 -20 24 -60 88 -60 97 0 4 -3 10 -8 12 -4 2 -27 35 -50 73 -24
39 -47 77 -52 85 -6 8 -46 74 -90 145 -88 143 -89 144 -125 198 -13 20 -21 37
-17 37 4 0 2 4 -4 8 -13 9 -134 201 -134 213 0 5 -4 9 -10 9 -5 0 -10 7 -10
15 0 8 -4 15 -10 15 -5 0 -10 4 -10 10 0 9 -39 72 -60 98 -6 6 -7 12 -3 12 4
0 0 5 -10 11 -9 6 -15 14 -12 20 4 5 1 9 -4 9 -6 0 -11 7 -11 15 0 8 -5 15
-12 15 -6 0 -9 3 -5 6 3 3 1 11 -4 18 -5 6 -24 34 -41 61 -17 28 -50 80 -74
118 -25 37 -42 67 -38 67 3 0 -1 7 -8 15 -30 33 -38 45 -38 55 0 5 -5 10 -12
10 -6 0 -8 3 -5 6 3 4 -6 25 -22 48 -29 42 -54 82 -112 176 -18 30 -37 57 -41
58 -5 2 -6 8 -2 13 3 5 1 9 -4 9 -5 0 -15 14 -22 30 -7 17 -17 30 -23 30 -6 0
-8 3 -4 6 3 4 1 12 -6 20 -7 7 -18 20 -25 29 -7 8 -17 13 -21 11 -8 -5 -68
-18 -88 -19 -7 0 -13 -5 -13 -10 0 -6 -3 -8 -6 -4 -3 3 -26 0 -50 -8 -24 -7
-44 -12 -44 -10 0 2 -21 -3 -46 -11 -26 -7 -50 -11 -55 -8 -5 3 -9 1 -9 -3 0
-5 -12 -10 -26 -11 -15 -1 -32 -6 -38 -11 -6 -4 -18 -9 -26 -9 -8 0 -26 -3
-40 -6 -14 -4 -38 -9 -55 -12 -31 -5 -59 -24 -36 -24 7 0 10 -4 7 -9 -3 -5 1
-14 9 -21 8 -7 15 -18 15 -25 0 -8 3 -15 8 -17 10 -4 92 -137 92 -149 0 -5 5
-9 10 -9 6 0 10 -7 10 -15 0 -8 5 -15 10 -15 6 0 10 -5 10 -11 0 -6 14 -30 30
-54 17 -24 30 -48 30 -54 0 -6 4 -11 8 -11 5 0 17 -18 28 -40 10 -22 22 -40
27 -40 4 0 7 -5 7 -11 0 -6 11 -25 25 -43 14 -18 25 -38 25 -44 0 -7 4 -12 9
-12 5 0 11 -8 15 -17 3 -10 14 -30 23 -45 105 -163 153 -242 153 -249 0 -5 5
-9 10 -9 6 0 10 -6 10 -13 0 -7 9 -23 20 -35 11 -12 20 -24 20 -27 0 -6 137
-228 171 -277 11 -15 19 -32 19 -38 0 -5 4 -10 8 -10 5 0 16 -15 26 -32 21
-40 31 -57 79 -131 20 -31 37 -60 37 -63 0 -2 9 -14 20 -26 10 -12 17 -25 14
-30 -3 -4 2 -11 10 -14 9 -3 16 -10 16 -14 0 -11 183 -304 192 -308 5 -2 8 -8
8 -13 0 -5 36 -65 80 -135 44 -69 80 -130 80 -134 0 -5 7 -13 16 -18 9 -5 16
-13 16 -18 -1 -5 18 -38 41 -74 23 -36 44 -69 47 -75 3 -5 17 -29 33 -52 15
-24 27 -47 27 -52 0 -5 7 -14 15 -21 12 -10 74 -109 84 -135 2 -5 10 -18 19
-27 10 -13 11 -18 3 -18 -7 0 -9 -4 -6 -10 8 -13 -8 -13 -22 1 -8 8 -13 7 -18
-2 -5 -8 -4 -10 3 -5 7 4 12 2 12 -5 0 -7 -9 -9 -22 -6 -23 6 -23 6 -3 -10 11
-9 14 -13 5 -10 -8 2 -22 1 -30 -3 -21 -10 -60 6 -60 25 0 8 -4 15 -10 15 -5
0 -10 4 -10 9 0 13 -141 245 -152 249 -4 2 -6 8 -2 13 3 5 1 9 -5 9 -5 0 -13
9 -16 20 -4 11 -26 51 -51 88 -24 37 -44 73 -44 80 0 6 -4 12 -9 12 -5 0 -14
14 -21 30 -7 17 -17 30 -23 30 -6 0 -8 3 -4 6 3 3 1 11 -4 18 -18 21 -149 238
-149 247 0 5 -4 9 -10 9 -5 0 -10 4 -10 9 0 9 -58 109 -70 121 -3 3 -11 15
-17 28 -25 44 -39 66 -80 131 -24 36 -43 72 -43 79 0 6 -4 12 -10 12 -5 0 -17
15 -25 33 -8 17 -28 52 -45 77 -16 25 -34 54 -40 65 -6 11 -24 40 -40 65 -16
25 -33 52 -37 60 -13 28 -107 175 -116 181 -5 3 -8 9 -8 13 2 25 -12 33 -50
26 -21 -4 -39 -5 -39 -1 0 3 -5 -1 -10 -9 -7 -11 -10 -11 -10 -2 0 7 -4 11 -8
8 -11 -7 -52 -13 -127 -21 -33 -4 -76 -9 -95 -11 -19 -3 -46 -7 -60 -9 -14 -2
-27 -4 -30 -5 -3 -1 -9 -2 -14 -1 -5 1 -22 -1 -38 -4 -29 -7 -29 -7 -24 -63 4
-32 8 -84 11 -117 3 -33 8 -80 11 -105 3 -25 7 -70 10 -100 3 -30 7 -80 10
-110 3 -30 7 -80 9 -110 3 -30 7 -75 9 -100 12 -111 20 -208 21 -247 0 -24 2
-43 5 -43 5 0 10 -49 13 -125 1 -22 7 -43 12 -47 6 -5 5 -8 -3 -8 -8 0 -10 -5
-6 -12 7 -10 12 -58 17 -148 1 -14 6 -28 12 -32 6 -5 5 -8 -4 -8 -10 0 -11 -3
-2 -14 9 -10 9 -16 1 -21 -7 -5 -8 -11 -1 -19 6 -6 10 -21 10 -31 0 -27 9
-140 11 -140 2 0 9 -84 11 -138 1 -21 6 -40 10 -43 5 -2 4 -16 -1 -29 -5 -14
-6 -25 -2 -25 5 0 8 -10 9 -22 1 -33 12 -154 19 -213 3 -27 6 -74 7 -102 1
-29 4 -53 7 -53 3 0 6 -19 6 -42 1 -24 4 -77 8 -119 7 -74 7 -76 -16 -84 -13
-4 -27 -7 -31 -6 -5 1 -11 -8 -14 -19 -3 -11 -10 -17 -16 -13 -6 4 -8 0 -4
-10 4 -11 1 -15 -14 -12 -10 2 -19 -1 -19 -6 0 -6 -4 -8 -9 -5 -5 3 -14 -1
-21 -9 -10 -12 -16 -13 -29 -3 -14 12 -14 11 -3 -4 11 -13 11 -21 2 -35 -10
-16 -11 -16 -6 -1 3 10 1 20 -4 23 -5 3 -11 -4 -15 -15 -4 -11 -11 -17 -17
-14 -6 4 -5 10 3 15 10 6 10 9 2 9 -6 0 -15 -5 -18 -10 -4 -6 -11 -7 -17 -4
-7 4 -8 2 -4 -5 4 -6 12 -8 18 -5 7 4 8 2 4 -4 -4 -7 -13 -12 -21 -12 -8 0
-19 -8 -24 -17 -6 -11 -11 -13 -11 -5 0 7 -5 10 -10 7 -8 -5 -7 -11 1 -21 10
-12 9 -13 -5 -8 -9 3 -16 1 -16 -5 0 -6 -7 -8 -15 -5 -9 4 -15 0 -15 -10 0 -9
-7 -16 -15 -16 -9 0 -18 -7 -22 -16 -5 -13 -7 -13 -14 -2 -6 9 -9 6 -9 -11 0
-18 -3 -21 -12 -13 -10 7 -20 4 -40 -13 -15 -13 -24 -26 -20 -30 4 -5 -3 -5
-16 -2 -20 5 -22 3 -10 -11 10 -12 10 -14 1 -8 -7 4 -13 3 -13 -2 0 -6 -7 -9
-16 -8 -9 0 -19 -5 -22 -13 -3 -9 0 -11 8 -6 8 5 11 4 6 -3 -3 -6 -15 -9 -26
-7 -14 3 -25 -5 -35 -25 -8 -16 -20 -32 -26 -36 -8 -4 -9 -3 -5 4 4 7 2 12 -3
12 -6 0 -11 -7 -11 -16 0 -9 -9 -18 -19 -21 -11 -3 -22 -14 -25 -26 -4 -18 -7
-19 -22 -6 -10 8 -15 9 -11 3 4 -7 0 -15 -9 -18 -8 -3 -12 -10 -9 -16 6 -9 -8
-15 -29 -11 -5 1 -5 -4 1 -11 8 -9 5 -18 -9 -33 -19 -20 -19 -20 -13 0 3 12 0
10 -7 -5 -14 -26 -48 -65 -48 -53 0 3 8 15 17 25 15 17 15 18 1 13 -9 -4 -19
-13 -22 -21 -3 -9 -11 -12 -18 -8 -7 4 -4 -3 7 -17 15 -18 16 -20 2 -10 -14
11 -17 11 -17 0 0 -12 -2 -12 -9 0 -7 11 -11 8 -17 -10 -4 -13 -7 -27 -6 -31
1 -4 -6 -4 -16 -1 -9 3 -14 3 -10 -1 7 -8 1 -18 -33 -55 -8 -10 -19 -25 -22
-35 -4 -9 -11 -14 -17 -11 -5 3 -10 1 -10 -4 0 -6 0 -13 0 -16 0 -3 -9 -14
-20 -25 -12 -12 -18 -25 -15 -30 4 -6 -1 -10 -10 -10 -9 0 -13 -5 -10 -10 3
-6 0 -13 -9 -16 -8 -3 -12 -12 -9 -20 3 -8 0 -14 -7 -14 -6 0 -8 -4 -5 -10 3
-5 2 -10 -3 -10 -6 0 -13 -7 -16 -16 -4 -10 -2 -13 7 -8 9 6 9 4 1 -7 -19 -26
-35 -71 -23 -63 8 5 9 3 3 -7 -10 -16 -12 -27 -20 -89 -8 -57 -11 -370 -4
-370 3 0 5 -19 6 -43 0 -23 4 -57 7 -75 4 -17 10 -47 13 -65 3 -17 11 -35 17
-39 7 -4 8 -8 3 -8 -5 0 -3 -6 3 -13 6 -8 8 -17 4 -20 -3 -4 -1 -7 5 -7 7 0
12 -7 12 -15 0 -8 5 -15 10 -15 6 0 10 -10 10 -21 0 -18 2 -19 15 -9 10 8 15
9 15 2 0 -6 11 -22 25 -36 14 -14 25 -31 25 -37 0 -7 3 -9 6 -6 4 3 19 -7 34
-23 16 -17 33 -30 39 -30 7 0 28 -16 47 -35 19 -20 39 -33 45 -30 5 4 9 -1 9
-10 0 -9 4 -14 8 -11 5 3 15 -4 22 -15 8 -10 20 -19 28 -19 7 0 15 -7 18 -15
4 -8 10 -13 14 -10 5 3 11 -4 15 -15 3 -11 17 -23 31 -26 13 -3 24 -12 24 -20
0 -8 9 -14 20 -14 11 0 19 -3 19 -7 -1 -5 -1 -15 0 -23 1 -13 2 -13 11 0 8 13
10 13 10 -2 0 -12 6 -16 21 -13 15 3 19 0 15 -10 -3 -8 0 -17 6 -21 7 -4 8 -3
4 4 -4 7 -1 12 8 12 8 0 16 -4 18 -9 3 -10 21 -14 56 -12 15 1 21 5 16 13 -4
7 -3 8 5 4 9 -6 9 -11 -1 -23 -11 -13 -6 -13 22 2 31 16 33 16 21 2 -8 -10 -9
-17 -3 -17 6 0 14 5 18 11 3 6 15 9 25 6 11 -3 19 -1 19 4 0 6 8 5 19 -1 14
-7 22 -7 26 1 5 7 12 6 23 -4 22 -19 67 -33 58 -18 -5 7 -1 9 8 5 9 -3 14 -9
11 -13 -2 -4 2 -8 10 -8 8 0 12 4 9 9 -3 4 -1 8 4 8 6 0 12 -7 16 -15 6 -17
26 -20 26 -4 0 5 -4 8 -8 5 -5 -3 -9 1 -9 9 0 10 4 12 12 5 7 -5 16 -6 20 -2
5 4 6 0 3 -9 -4 -9 -1 -16 8 -16 7 0 11 4 8 8 -2 4 0 10 6 14 5 3 10 2 10 -3
0 -5 12 -8 28 -6 15 1 27 3 27 4 0 9 41 6 47 -3 5 -8 8 -6 8 6 0 9 5 17 11 17
5 0 7 -5 4 -10 -3 -6 1 -10 10 -10 10 0 13 5 9 13 -5 8 -2 8 9 -2 15 -12 17
-11 17 3 0 9 5 16 11 16 6 0 9 -6 6 -14 -7 -17 42 -13 53 4 6 9 9 9 13 -1 4
-11 9 -10 21 5 14 17 16 17 16 4 0 -9 6 -20 13 -24 6 -4 9 -4 5 1 -10 11 23
34 39 28 7 -3 10 -10 7 -17 -3 -6 1 -3 9 6 8 10 16 16 18 13 9 -8 59 -14 54
-6 -7 13 49 10 58 -3 5 -6 7 -2 4 12 -6 26 -4 27 17 6 9 -8 16 -11 16 -6 0 6
14 9 30 8 23 -2 29 1 25 12 -4 12 -2 12 8 3 11 -9 17 -7 28 6 8 9 9 14 2 10
-6 -4 -14 -3 -17 1 -3 5 12 8 34 7 22 -1 37 2 35 6 -8 11 6 40 16 33 5 -3 6 2
3 10 -3 9 -10 13 -15 10 -5 -3 0 11 11 30 11 20 16 35 12 35 -21 -3 -23 3 -7
27 9 15 12 23 6 20 -10 -7 -16 7 -12 28 1 5 -5 6 -13 3 -10 -4 -13 -1 -9 9 3
7 0 14 -6 14 -6 0 -1 10 11 22 14 14 18 23 10 26 -7 2 -12 10 -12 18 0 9 -5
13 -12 9 -7 -4 -6 -1 2 7 8 7 16 18 16 23 1 6 5 20 9 33 3 12 3 22 -2 21 -23
-4 -32 2 -26 19 3 9 3 14 -2 10 -4 -4 -14 0 -22 10 -11 13 -16 14 -20 4 -4
-10 -8 -10 -20 -1 -11 10 -14 10 -11 -2 2 -8 -4 -13 -14 -13 -11 1 -15 -5 -13
-17 3 -16 1 -18 -17 -8 -13 7 -18 7 -14 1 3 -6 2 -13 -4 -17 -5 -3 -10 1 -10
9 0 13 -4 13 -37 0 -34 -13 -36 -13 -19 1 11 8 15 15 9 15 -7 0 -15 -5 -19
-11 -3 -6 -17 -8 -30 -5 -14 4 -24 2 -24 -4 0 -11 -58 -9 -76 3 -6 3 -11 0
-11 -8 0 -8 8 -12 20 -9 11 2 17 0 13 -3 -12 -12 -40 -12 -47 -1 -13 21 -38
17 -54 -8 -14 -21 -19 -23 -38 -12 -26 14 -27 14 -39 -4 -6 -8 -7 -5 -2 12 6
22 5 23 -9 12 -9 -8 -29 -11 -46 -9 -18 3 -31 1 -31 -5 0 -6 8 -7 18 -3 13 5
14 4 5 -6 -10 -10 -17 -9 -34 7 -13 10 -19 13 -14 5 6 -11 4 -13 -10 -7 -15 5
-16 4 -5 -9 11 -13 10 -14 -4 -9 -9 3 -16 10 -16 14 0 16 -53 3 -68 -16 -14
-18 -14 -18 -8 0 4 13 2 17 -8 13 -8 -3 -17 -3 -20 1 -12 11 -40 11 -55 -1
-12 -10 -14 -9 -8 6 5 14 4 16 -10 9 -12 -7 -22 -4 -36 12 -10 11 -16 16 -13
9 4 -6 2 -14 -4 -18 -5 -3 -10 -2 -10 3 0 15 -32 24 -44 12 -8 -8 -5 -9 9 -4
21 8 21 6 -9 -16 -13 -10 -17 -10 -12 -2 10 17 -24 29 -35 11 -7 -11 -9 -10
-10 6 l0 20 -9 -20 c-5 -11 -9 -15 -9 -10 -1 6 -10 16 -22 23 -12 8 -18 9 -14
3 3 -7 -2 -11 -14 -11 -11 0 -22 4 -25 9 -7 10 -25 9 -43 -2 -9 -6 -11 -3 -6
9 4 12 3 15 -5 10 -7 -4 -12 -2 -12 3 0 6 -9 11 -20 11 -11 0 -19 3 -17 8 2 7
-41 54 -46 50 -3 -4 -31 19 -63 51 -13 13 -24 21 -24 17 0 -4 -7 -1 -15 8 -8
8 -15 20 -15 26 0 6 -5 10 -12 8 -12 -4 -18 0 -81 59 -27 25 -37 29 -47 20
-10 -10 -12 -8 -7 5 5 13 0 19 -18 24 -14 3 -25 10 -25 15 0 4 -10 17 -22 29
-12 11 -18 20 -13 20 5 0 0 6 -10 14 -11 8 -22 13 -25 11 -3 -2 -6 12 -6 31 0
19 5 34 11 34 5 0 3 5 -5 10 -8 5 -10 10 -3 10 6 0 10 8 8 18 -1 9 6 29 16 44
11 14 19 31 19 37 0 6 4 11 9 11 5 0 11 9 14 21 4 14 10 18 18 13 8 -5 11 -2
6 8 -3 10 7 25 29 43 18 15 31 31 28 36 -3 5 6 20 20 33 14 13 26 28 26 33 0
5 11 16 25 23 13 7 22 18 18 23 -3 6 -1 7 6 3 13 -9 44 12 36 24 -3 4 3 7 12
6 9 0 18 5 21 13 3 9 0 11 -9 6 -8 -5 -11 -4 -6 1 5 5 12 9 16 9 4 0 28 21 53
47 25 26 49 44 54 40 4 -4 4 1 1 10 -4 12 -2 15 7 12 8 -3 21 5 30 18 9 12 16
19 16 15 0 -4 6 -2 14 5 8 7 11 17 8 22 -3 5 3 6 12 3 14 -6 17 -3 12 8 -3 10
-2 13 4 10 6 -4 20 4 31 17 11 13 18 16 14 8 -4 -8 2 -4 13 9 15 18 21 21 25
10 4 -8 5 -3 4 11 -2 22 1 25 27 22 18 -3 26 0 22 7 -4 6 0 11 8 11 9 0 16 5
16 11 0 5 4 8 9 5 5 -3 11 1 15 9 3 8 11 15 17 15 6 0 22 11 35 26 13 14 24
22 24 19 0 -3 6 0 14 7 8 7 12 16 9 21 -2 4 -1 7 4 6 24 -4 43 2 37 13 -5 8 0
9 15 5 17 -4 20 -3 11 7 -8 10 -5 13 12 12 13 -1 29 5 36 14 12 13 13 13 7 0
-4 -8 3 -4 15 10 12 14 19 19 15 11 -5 -9 1 -8 19 4 22 15 24 20 14 34 -10 13
-10 14 2 3 20 -17 33 -15 26 4 -6 15 -4 15 11 3 15 -12 16 -12 10 3 -4 13 -2
15 10 11 12 -5 14 -3 8 8 -6 10 -5 11 3 4 12 -11 15 -29 27 -160 4 -33 8 -80
11 -105 16 -158 27 -283 28 -320 1 -19 4 -39 7 -45 4 -5 5 -18 3 -28 -3 -19
18 -19 161 -2 17 2 53 7 80 10 71 8 79 10 93 18 7 5 12 3 12 -3 0 -6 5 -8 12
-4 6 4 21 8 32 9 58 5 115 18 111 26 -3 4 -8 30 -10 56 -2 26 -7 68 -10 93 -3
25 -7 70 -10 100 -3 30 -8 75 -11 100 -6 51 -13 132 -18 205 -2 28 -5 50 -6
50 -3 0 -8 53 -12 117 -2 32 -5 58 -8 58 -3 0 -5 19 -5 41 1 36 5 43 33 58 18
9 29 21 25 26 -4 4 -3 5 4 2 14 -9 45 2 38 13 -3 5 -1 11 5 15 5 3 10 0 10 -7
0 -7 10 0 21 15 18 23 24 26 37 15 10 -9 13 -9 9 -1 -4 7 1 14 13 18 11 3 20
10 20 15 0 5 7 7 15 4 10 -4 13 -2 10 8 -4 9 2 14 16 15 12 1 29 9 38 17 10 9
21 13 24 9 4 -3 7 -1 7 6 0 7 4 10 9 7 5 -3 12 2 15 11 5 12 10 13 18 5 8 -8
17 -5 34 13 14 15 29 22 38 19 11 -4 16 -1 16 10 0 9 3 15 8 15 19 -3 33 2 28
10 -3 5 6 12 20 15 19 5 24 11 19 24 -3 9 -3 14 0 10 4 -3 18 0 33 8 14 7 27
12 28 11 16 -24 137 -223 153 -252 11 -22 21 -35 21 -30 0 6 8 -6 17 -25 10
-19 20 -37 23 -40 8 -7 28 -41 42 -70 7 -14 16 -27 19 -30 4 -3 15 -19 25 -37
47 -81 108 -178 113 -183 4 -3 15 -21 24 -40 19 -38 39 -72 47 -80 8 -8 54
-82 69 -113 8 -15 18 -27 23 -27 4 0 8 -5 8 -10 0 -6 27 -53 60 -106 33 -52
60 -97 60 -99 0 -3 16 -27 35 -53 19 -27 32 -51 30 -54 -3 -3 4 -13 15 -23 11
-10 20 -24 20 -32 0 -7 4 -13 9 -13 5 0 12 -11 15 -25 4 -14 10 -25 15 -25 4
0 16 -18 26 -40 10 -22 22 -40 27 -40 4 0 8 -5 8 -11 0 -6 14 -30 30 -54 17
-24 30 -46 30 -49 0 -7 116 -187 132 -206 7 -8 12 -16 10 -17 -2 -3 9 -23 63
-108 18 -27 40 -65 49 -82 9 -18 22 -33 28 -33 6 0 9 -3 5 -6 -3 -3 10 -30 29
-59 19 -30 34 -59 34 -65 0 -5 3 -10 8 -10 4 0 16 -17 27 -37 11 -21 28 -47
38 -57 9 -11 17 -24 17 -29 0 -6 11 -24 24 -41 13 -17 26 -41 30 -52 3 -12 15
-29 26 -39 11 -10 20 -26 20 -37 0 -10 4 -18 8 -18 4 0 16 -15 27 -32 22 -39
46 -59 60 -50 5 4 21 8 35 9 47 4 105 12 105 13 0 1 14 3 30 5 136 17 191 23
262 29 12 1 25 5 28 8 4 4 13 4 21 1 23 -9 16 15 -21 73 -19 30 -35 59 -35 64
0 6 -3 10 -8 10 -4 0 -19 21 -32 47 -14 26 -33 56 -42 67 -10 11 -18 24 -18
30 0 5 -6 17 -14 25 -8 9 -16 23 -18 31 -2 8 -6 17 -10 20 -6 5 -101 157 -149
239 -8 14 -18 30 -22 35 -23 31 -127 208 -127 216 0 6 -4 10 -8 10 -5 0 -17
18 -28 40 -10 22 -22 40 -25 40 -4 0 -10 11 -13 25 -4 14 -11 25 -16 25 -6 0
-10 7 -10 15 0 8 -4 15 -9 15 -5 0 -11 8 -14 17 -6 19 -38 74 -48 83 -7 7 -69
113 -94 161 -11 22 -24 37 -28 33 -4 -4 -7 -1 -7 7 0 8 -18 42 -40 77 -22 34
-40 67 -40 72 0 6 -4 10 -10 10 -5 0 -10 5 -10 11 0 6 -13 30 -30 53 -16 24
-26 46 -23 50 4 3 1 6 -5 6 -6 0 -17 12 -24 28 -19 36 -42 76 -48 82 -10 10
-31 45 -36 62 -4 10 -11 18 -16 18 -5 0 -6 5 -3 10 3 5 1 10 -4 10 -6 0 -11 7
-11 15 0 8 -4 15 -10 15 -5 0 -10 5 -10 11 0 6 -13 29 -28 52 -16 23 -32 49
-35 57 -12 27 -32 55 -44 63 -7 4 -13 17 -13 27 0 11 -4 20 -10 20 -5 0 -10 7
-10 15 0 8 -4 15 -10 15 -5 0 -10 4 -10 9 0 5 -29 56 -63 113 -35 57 -79 128
-97 158 -53 88 -89 144 -100 157 -5 7 -10 16 -10 20 0 4 -15 30 -34 58 -40 59
-54 97 -34 93 7 -2 12 3 10 10 -2 9 2 10 16 3 14 -8 24 -4 45 15 15 14 27 20
27 13 0 -8 4 -8 15 1 12 10 15 10 15 0 0 -11 207 -349 221 -360 3 -3 8 -10 10
-15 12 -30 93 -155 100 -155 5 0 9 -6 9 -14 0 -12 47 -93 77 -131 17 -22 44
-71 50 -88 3 -9 9 -17 14 -17 5 0 9 -7 9 -15 0 -8 4 -15 9 -15 5 0 17 -18 27
-40 10 -22 21 -40 26 -40 4 0 8 -7 8 -15 0 -8 3 -15 8 -15 4 0 16 -18 26 -40
11 -22 23 -40 28 -40 4 0 8 -5 8 -10 0 -11 70 -121 83 -131 5 -3 8 -10 8 -15
-1 -5 6 -17 14 -27 8 -9 15 -20 15 -23 0 -4 18 -33 40 -65 22 -32 40 -62 40
-67 0 -5 9 -18 20 -30 12 -12 18 -22 15 -22 -7 0 55 -92 68 -101 5 -3 8 -8 8
-10 -1 -11 12 -49 18 -49 3 0 17 -18 31 -39 l24 -40 81 5 c44 3 135 6 203 8
112 3 125 5 138 25 8 11 11 21 7 21 -5 0 -9 26 -11 58 -4 116 -9 169 -16 180
-4 7 -4 12 1 12 4 0 8 11 8 25 0 14 -2 25 -5 25 -3 0 -6 9 -7 20 -1 11 3 20 8
20 6 0 7 5 3 12 -4 7 -9 30 -10 52 -18 303 -22 362 -28 496 -3 63 -8 149 -11
190 -4 41 -8 114 -10 162 -1 47 -6 91 -9 97 -4 6 -2 11 4 11 6 0 8 5 4 12 -4
6 -9 41 -11 77 -2 36 -5 96 -6 132 -2 36 -7 70 -10 77 -4 6 -3 14 3 17 8 5 7
11 -1 21 -9 11 -8 14 2 14 9 0 10 3 4 8 -6 4 -11 39 -12 77 -2 80 -11 240 -13
240 -1 0 -3 40 -5 88 -4 76 -1 91 15 107 10 10 21 16 24 13 3 -4 6 5 6 18 0
19 2 21 10 9 9 -14 24 -8 26 11 3 22 5 23 14 9 8 -12 10 -10 10 10 0 16 3 21
8 13 6 -9 18 -5 44 17 20 16 45 31 57 33 11 2 24 7 28 12 5 4 2 5 -4 1 -7 -4
-13 -2 -13 3 0 6 7 11 15 11 8 0 15 5 15 10 0 6 5 10 11 10 5 0 7 -5 3 -12 -4
-7 -3 -8 5 -4 6 4 9 12 6 17 -4 5 1 9 10 9 10 0 13 5 9 12 -5 8 -2 9 10 5 14
-6 17 -3 12 8 -3 9 -2 14 3 11 5 -3 14 1 21 9 7 8 21 15 32 15 14 0 18 5 15
14 -4 10 -1 13 8 9 8 -3 17 2 21 10 3 9 12 13 20 10 7 -3 17 2 20 11 3 9 11
13 17 9 7 -4 8 0 4 11 -5 12 -3 16 5 14 15 -5 49 23 42 34 -3 5 -1 7 3 6 13
-4 84 73 77 83 -3 5 0 8 8 7 7 -2 12 2 11 9 -2 6 6 15 17 18 11 4 18 11 15 16
-4 5 1 12 9 15 8 3 29 28 47 55 17 27 35 49 40 49 5 0 9 7 9 16 0 8 4 13 8 10
8 -5 54 91 54 111 0 4 4 14 10 21 6 7 13 31 15 55 3 23 9 43 14 45 5 2 5 11 0
21 -6 10 -6 23 -1 31 5 8 6 18 3 23 -3 5 -7 39 -10 75 -9 140 -11 167 -13 167
-2 0 -12 106 -14 142 0 17 -4 29 -8 26 -5 -2 -9 13 -9 34 -3 76 -7 108 -14
125 -3 9 -8 23 -9 31 -1 8 -8 23 -16 33 -13 16 -13 17 0 9 11 -6 10 -3 -2 12
-10 11 -18 25 -18 31 0 7 -4 12 -10 12 -5 0 -10 7 -10 15 0 8 -4 15 -8 15 -4
0 -9 10 -9 22 -1 13 -7 24 -13 26 -5 2 -10 14 -10 27 0 13 -5 25 -11 27 -5 2
-11 10 -12 18 -2 8 -7 21 -11 29 -7 10 -5 12 5 6 8 -5 7 0 -4 12 -9 11 -14 23
-10 26 3 4 1 7 -5 7 -7 0 -12 6 -12 13 0 7 -9 23 -19 34 -11 12 -17 24 -14 27
4 3 -1 6 -10 6 -9 0 -19 5 -23 12 -5 7 -2 9 7 4 8 -4 5 -1 -5 8 -10 8 -23 13
-29 9 -6 -4 -7 -1 -3 6 5 8 1 14 -11 17 -10 3 -27 18 -38 34 -13 20 -22 25
-27 17 -5 -8 -8 -7 -8 5 0 12 -5 15 -17 11 -11 -4 -14 -3 -9 5 5 8 0 12 -14
12 -14 0 -19 4 -14 12 5 8 2 9 -10 5 -10 -4 -15 -3 -11 3 3 6 -6 15 -22 21
-15 6 -28 9 -29 7 -2 -8 -34 32 -34 43 0 8 -4 8 -15 -1 -13 -11 -14 -10 -9 4
5 13 2 15 -12 10 -11 -4 -16 -4 -12 1 13 13 -25 35 -39 23 -10 -8 -13 -6 -13
6 0 10 -4 14 -10 11 -5 -3 -10 -1 -10 6 0 6 -8 9 -19 6 -14 -3 -18 -1 -14 9 3
8 -1 14 -11 14 -9 0 -16 5 -16 11 0 5 -4 7 -10 4 -5 -3 -10 -1 -10 5 0 6 -4 8
-10 5 -5 -3 -10 -2 -10 3 0 12 -49 34 -60 27 -5 -3 -12 0 -16 6 -5 8 -3 9 6 4
9 -5 11 -4 6 4 -6 9 -11 9 -24 -1 -12 -10 -14 -10 -8 0 4 7 1 12 -8 12 -9 0
-16 5 -16 12 0 6 -3 8 -7 5 -3 -4 -13 -1 -21 6 -13 9 -14 9 -8 0 5 -9 2 -11
-8 -7 -8 3 -17 12 -20 20 -4 10 -11 11 -30 4 -17 -6 -26 -5 -29 4 -3 8 -25 12
-61 12 -39 -1 -55 3 -52 11 5 12 -24 10 -46 -3 -6 -4 -8 -3 -4 4 3 6 2 13 -4
17 -5 3 -10 1 -10 -5 0 -6 -5 -8 -10 -5 -6 4 -8 11 -5 16 3 5 -1 6 -9 3 -9 -3
-13 -11 -9 -18 3 -6 -4 -2 -16 9 -18 15 -26 17 -40 8 -15 -9 -23 -8 -40 8 -11
11 -21 15 -21 9 0 -5 -5 -10 -11 -10 -5 0 -8 4 -5 8 3 5 -1 9 -9 9 -8 0 -12
-4 -9 -9 10 -15 -9 -8 -23 10 -8 9 -12 12 -9 5 4 -6 2 -14 -4 -18 -5 -3 -10
-1 -10 5 0 7 -6 10 -13 7 -8 -3 -20 -1 -28 3 -8 6 -16 4 -21 -3 -5 -8 -8 -6
-8 6 0 19 -15 23 -25 6 -5 -6 -12 -4 -22 8 -14 17 -14 17 -9 -1 5 -16 4 -17
-8 -7 -8 7 -20 10 -25 6 -7 -4 -8 1 -4 12 5 14 0 12 -21 -7 -15 -14 -27 -20
-26 -15 5 21 -1 32 -15 32 -8 0 -12 -4 -9 -9 9 -14 -13 -9 -26 6 -11 14 -44
11 -35 -3 2 -4 -3 -8 -11 -8 -8 0 -13 6 -10 14 3 7 1 13 -4 13 -6 0 -10 -7
-10 -16 0 -8 -5 -12 -10 -9 -6 4 -8 11 -4 16 3 6 -3 5 -14 -2 -12 -7 -19 -16
-17 -19 2 -4 -2 -7 -10 -7 -13 0 -13 2 0 17 13 14 12 16 -5 16 -10 0 -17 -3
-14 -7z m5 -432 c-10 -9 -11 -8 -5 6 3 10 9 15 12 12 3 -3 0 -11 -7 -18z m550
-44 c13 -16 12 -17 -3 -4 -10 7 -18 15 -18 17 0 8 8 3 21 -13z m959 -1227 c0
-3 -4 -8 -10 -11 -5 -3 -10 -1 -10 4 0 6 5 11 10 11 6 0 10 -2 10 -4z m-40
-50 c0 -2 -8 -10 -17 -17 -16 -13 -17 -12 -4 4 13 16 21 21 21 13z m-348 -243
c-6 -3 -9 -10 -6 -15 4 -7 2 -8 -5 -4 -9 6 -9 11 0 22 6 8 15 12 18 8 3 -4 0
-9 -7 -11z m-2779 -300 c9 -21 44 -80 77 -131 33 -51 60 -95 60 -98 0 -3 10
-20 23 -37 24 -35 32 -47 79 -127 17 -30 35 -56 40 -58 4 -2 8 -8 8 -12 0 -5
32 -59 70 -120 39 -61 70 -115 70 -120 0 -6 4 -10 9 -10 5 0 13 -10 17 -22 4
-13 10 -25 14 -28 11 -8 54 -94 49 -100 -2 -3 -8 -4 -13 -2 -5 2 -5 -5 -2 -15
5 -13 4 -15 -4 -7 -7 7 -21 9 -32 6 -15 -4 -17 -7 -6 -14 9 -7 7 -8 -9 -5 -22
5 -29 -7 -24 -36 1 -5 -3 -6 -9 -2 -6 3 -8 10 -5 15 3 4 -2 10 -10 13 -9 4
-12 1 -9 -7 3 -8 0 -17 -7 -22 -7 -4 -10 -3 -5 4 4 6 -1 10 -13 9 -14 -1 -17
-5 -10 -13 7 -8 6 -15 -2 -20 -8 -4 -9 -3 -5 4 4 7 3 12 -3 12 -5 0 -13 -9
-16 -20 -7 -21 -25 -28 -25 -10 0 6 5 10 12 10 6 0 8 3 5 7 -11 10 -48 -29
-42 -45 4 -12 3 -12 -9 -3 -17 15 -28 0 -20 -26 3 -10 -1 -7 -10 7 -11 19 -15
21 -16 8 0 -9 -5 -20 -12 -24 -7 -5 -8 -3 -3 5 6 10 3 11 -14 2 -11 -7 -21
-14 -21 -17 0 -3 6 -2 13 2 7 4 8 3 4 -2 -5 -5 -14 -9 -20 -10 -7 0 -20 -2
-30 -2 -10 -1 -15 -6 -12 -12 3 -5 0 -10 -9 -10 -8 0 -21 -2 -28 -5 -9 -4 -14
2 -15 17 -2 30 -15 170 -28 293 -3 28 -8 70 -10 95 -2 25 -4 45 -5 45 -2 0 -7
49 -14 135 -3 30 -6 55 -7 55 -1 0 -3 25 -5 55 -1 30 -3 55 -4 55 -1 0 -3 12
-4 26 -2 14 -6 32 -11 39 -6 9 -4 11 5 5 9 -6 11 -4 5 6 -5 7 -10 29 -12 49
-4 48 -12 129 -19 195 -7 64 4 71 29 18z m1704 -278 c0 -8 -4 -12 -9 -9 -5 3
-6 10 -3 15 9 13 12 11 12 -6z m58 5 c3 -6 -1 -7 -9 -4 -18 7 -21 14 -7 14 6
0 13 -4 16 -10z m-131 -58 c3 -5 -1 -9 -9 -9 -8 0 -12 4 -9 9 3 4 7 8 9 8 2 0
6 -4 9 -8z m600 -192 c4 -41 9 -93 12 -115 2 -22 6 -71 9 -110 2 -38 7 -104
11 -145 3 -41 7 -93 9 -115 2 -22 4 -40 5 -40 1 0 12 -159 13 -202 0 -18 4
-33 9 -33 5 0 4 -9 -2 -20 -6 -12 -7 -20 -1 -20 5 0 8 -13 6 -30 -2 -16 1 -32
6 -36 6 -4 6 -11 -2 -20 -9 -11 -9 -14 0 -14 7 0 9 -4 6 -10 -9 -15 -25 -12
-25 5 0 8 -4 15 -10 15 -5 0 -10 4 -10 9 0 9 -58 109 -70 121 -12 12 -70 112
-70 121 0 5 -4 9 -10 9 -5 0 -10 7 -10 15 0 8 -4 15 -10 15 -5 0 -10 4 -10 10
0 5 -25 49 -56 97 -81 127 -84 132 -86 140 -1 5 -10 17 -20 27 -10 11 -18 26
-18 33 0 7 -4 13 -10 13 -5 0 -10 7 -10 15 0 8 -4 15 -10 15 -5 0 -10 4 -10
10 0 5 -14 31 -30 57 -20 31 -27 50 -20 57 13 13 42 17 34 5 -11 -18 12 -8 26
11 14 20 37 29 25 10 -3 -5 -1 -10 4 -10 6 0 11 5 11 11 0 5 5 7 12 3 6 -4 8
-3 5 3 -7 11 22 28 31 18 3 -3 -1 -5 -8 -5 -7 0 -11 -3 -8 -6 10 -9 48 19 49
36 0 11 2 11 6 2 4 -10 9 -9 19 5 13 17 14 17 7 -1 -4 -13 -3 -17 5 -12 7 4
12 14 12 21 0 8 6 12 14 9 8 -3 17 0 22 7 5 8 3 10 -6 4 -8 -5 -11 -4 -6 3 3
6 15 9 26 7 11 -2 23 2 27 9 8 13 43 30 56 28 4 -1 7 5 7 14 0 10 6 14 15 10
10 -3 15 1 15 11 0 40 8 2 14 -67z m-989 -379 c3 -5 2 -12 -3 -15 -5 -3 -9 1
-9 9 0 17 3 19 12 6z m-1656 -488 c-7 -10 -14 -19 -15 -21 -1 -2 -4 4 -8 13
-3 9 -2 13 3 10 5 -3 12 -1 16 5 3 5 9 10 12 10 3 0 -1 -8 -8 -17z m-319 -217
c0 -2 -7 -7 -16 -10 -8 -3 -12 -2 -9 4 6 10 25 14 25 6z m-88 -43 c-6 -3 -9
-10 -6 -15 4 -7 2 -8 -4 -4 -7 4 -12 2 -12 -5 0 -7 -3 -9 -7 -6 -3 4 2 16 12
27 10 11 21 17 24 14 3 -4 0 -9 -7 -11z m984 -1545 c3 -4 -1 -5 -10 -4 -8 1
-18 5 -22 8 -3 4 1 5 10 4 8 -1 18 -5 22 -8z m-1056 -22 c0 -2 -8 -10 -17 -17
-16 -13 -17 -12 -4 4 13 16 21 21 21 13z m831 -19 c-10 -9 -11 -8 -5 6 3 10 9
15 12 12 3 -3 0 -11 -7 -18z m-501 -23 c0 -8 -19 -13 -24 -6 -3 5 1 9 9 9 8 0
15 -2 15 -3z m322 -396 c-7 -7 -12 -8 -12 -2 0 14 12 26 19 19 2 -3 -1 -11 -7
-17z"/>
<path d="M5210 5850 c0 -5 5 -10 11 -10 5 0 7 5 4 10 -3 6 -8 10 -11 10 -2 0
-4 -4 -4 -10z"/>
<path d="M2197 968 c-3 -8 0 -15 6 -15 7 0 18 -2 26 -4 7 -2 16 2 18 9 3 8 -1
10 -12 6 -9 -4 -20 -1 -25 5 -5 10 -9 9 -13 -1z"/>
<path d="M1810 540 c0 -5 5 -10 11 -10 5 0 7 5 4 10 -3 6 -8 10 -11 10 -2 0
-4 -4 -4 -10z"/>
</g>
</svg>
